<?xml version="1.0" encoding="UTF-8"?>
<svg id="Outline" xmlns="http://www.w3.org/2000/svg" version="1.1" viewBox="0 0 512 512">
  <!-- Generator: Adobe Illustrator 30.2.1, SVG Export Plug-In . SVG Version: 2.1.1 Build 1)  -->
  <defs>
    <style>
      .st0 {
        fill: #fff;
      }
    </style>
  </defs>
  <path class="st0" d="M383.02,227.48c43.32-69.99,21.71-161.84-48.28-205.16C311.09,7.67,283.82-.06,256,0H106.67C83.1,0,64,19.1,64,42.67v426.67c0,23.56,19.1,42.67,42.67,42.67h213.33c82.4.09,149.28-66.64,149.36-149.05.06-58.12-33.63-110.99-86.34-135.48h0ZM149.33,85.33h106.67c35.35,0,64,28.65,64,64s-28.65,64-64,64h-106.67V85.33ZM320,426.67h-170.67v-128h170.67c35.35,0,64,28.65,64,64s-28.65,64-64,64Z"/>
</svg>