<?xml version="1.0" encoding="UTF-8"?>
<svg id="Layer_1" xmlns="http://www.w3.org/2000/svg" version="1.1" viewBox="0 0 512 512">
  <!-- Generator: Adobe Illustrator 30.2.1, SVG Export Plug-In . SVG Version: 2.1.1 Build 1)  -->
  <defs>
    <style>
      .st0 {
        fill: #fff;
      }
    </style>
  </defs>
  <path class="st0" d="M277.33,426.67c58.88-.07,106.6-47.79,106.67-106.67v-186.82c.07-22.65-8.94-44.38-25-60.35l-47.83-47.83C295.2,8.94,273.47-.07,250.82,0h-101.48C90.45.07,42.74,47.79,42.67,106.67v213.33c.07,58.88,47.79,106.6,106.67,106.67h128ZM85.33,320V106.67c0-35.35,28.65-64,64-64,0,0,104.94.3,106.67.51v42.15c0,23.56,19.1,42.67,42.67,42.67h42.15c.21,1.73.51,192,.51,192,0,35.35-28.65,64-64,64h-128c-35.35,0-64-28.65-64-64ZM469.33,170.67v234.67c-.07,58.88-47.79,106.6-106.67,106.67h-192c-11.78,0-21.33-9.55-21.33-21.33s9.55-21.33,21.33-21.33h192c35.35,0,64-28.65,64-64v-234.67c0-11.78,9.55-21.33,21.33-21.33s21.33,9.55,21.33,21.33Z"/>
</svg>