<?xml version="1.0" encoding="UTF-8"?>
<svg id="Layer_1" xmlns="http://www.w3.org/2000/svg" version="1.1" viewBox="0 0 512 512">
  <!-- Generator: Adobe Illustrator 30.2.1, SVG Export Plug-In . SVG Version: 2.1.1 Build 1)  -->
  <defs>
    <style>
      .st0 {
        fill: #fff;
      }
    </style>
  </defs>
  <path class="st0" d="M405.33,298.67c-17.56.12-34.81,4.63-50.18,13.12l-71.42-85.65L443.03,34.99c7.32-9.23,5.78-22.65-3.45-29.97-8.92-7.08-21.82-5.9-29.32,2.67l-154.26,185.13L101.72,7.68c-7.76-8.87-21.24-9.77-30.1-2.01-8.57,7.5-9.74,20.4-2.67,29.32l159.32,191.15-71.42,85.65c-15.37-8.48-32.62-12.99-50.18-13.12C47.76,298.67,0,346.42,0,405.33s47.76,106.67,106.67,106.67,106.67-47.76,106.67-106.67c-.12-24.11-8.49-47.45-23.72-66.13l66.39-79.74,66.37,79.74c-15.21,18.7-23.57,42.03-23.7,66.13,0,58.91,47.76,106.67,106.67,106.67s106.67-47.76,106.67-106.67-47.76-106.67-106.67-106.67h0ZM106.67,469.33c-35.35,0-64-28.65-64-64s28.65-64,64-64,64,28.65,64,64-28.65,64-64,64ZM405.33,469.33c-35.35,0-64-28.65-64-64s28.65-64,64-64,64,28.65,64,64-28.65,64-64,64Z"/>
</svg>