<?xml version="1.0" encoding="UTF-8"?>
<svg id="Layer_1" xmlns="http://www.w3.org/2000/svg" version="1.1" viewBox="0 0 512 512">
  <!-- Generator: Adobe Illustrator 30.2.1, SVG Export Plug-In . SVG Version: 2.1.1 Build 1)  -->
  <defs>
    <style>
      .st0 {
        fill: #fff;
      }
    </style>
  </defs>
  <path class="st0" d="M512,490.67c0,11.73-9.6,21.33-21.33,21.33H106.67c-11.73,0-21.33-9.6-21.33-21.33s9.6-21.33,21.33-21.33h384c11.73,0,21.33,9.6,21.33,21.33ZM72.75,426.67l-36.48,36.48c-4.27,4.27-9.6,6.19-15.15,6.19s-10.88-2.13-15.15-6.19c-8.32-8.32-8.32-21.76,0-30.08l36.48-36.48v-92.8c0-36.48,15.57-71.25,42.88-95.57L302.29,23.47c37.76-32.85,95.15-30.72,130.56,4.69l8.32,8.32c35.41,35.41,37.55,93.01,4.69,130.77l-184.53,216.32c-24.53,27.52-59.31,43.09-95.79,43.09h-92.8ZM165.55,384c5.33,0,10.67-.64,16-1.71l-94.51-94.51c-1.07,5.12-1.71,10.45-1.71,16v80.21h80.21ZM113.49,240.43c-2.35,2.13-4.27,4.69-6.4,7.04l114.77,114.77c2.56-2.13,5.12-4.27,7.47-6.83l184.11-216.11c18.35-21.12,17.28-53.12-2.35-72.75l-8.32-8.32c-19.63-19.63-51.63-20.91-72.75-2.56L113.49,240.43Z"/>
</svg>