<?xml version="1.0" encoding="UTF-8"?>
<svg id="Outline" xmlns="http://www.w3.org/2000/svg" version="1.1" viewBox="0 0 512 512">
  <!-- Generator: Adobe Illustrator 30.2.1, SVG Export Plug-In . SVG Version: 2.1.1 Build 1)  -->
  <defs>
    <style>
      .st0 {
        fill: #fff;
      }
    </style>
  </defs>
  <path class="st0" d="M149.33,128h341.33c11.78,0,21.33-9.55,21.33-21.33s-9.55-21.33-21.33-21.33H149.33c-11.78,0-21.33,9.55-21.33,21.33s9.55,21.33,21.33,21.33Z"/>
  <path class="st0" d="M490.67,234.67H149.33c-11.78,0-21.33,9.55-21.33,21.33s9.55,21.33,21.33,21.33h341.33c11.78,0,21.33-9.55,21.33-21.33s-9.55-21.33-21.33-21.33Z"/>
  <path class="st0" d="M490.67,384H149.33c-11.78,0-21.33,9.55-21.33,21.33s9.55,21.33,21.33,21.33h341.33c11.78,0,21.33-9.55,21.33-21.33s-9.55-21.33-21.33-21.33Z"/>
  <circle class="st0" cx="42.67" cy="106.67" r="42.67"/>
  <circle class="st0" cx="42.67" cy="256" r="42.67"/>
  <circle class="st0" cx="42.67" cy="405.33" r="42.67"/>
</svg>