<?xml version="1.0" encoding="UTF-8"?>
<svg id="Layer_1" xmlns="http://www.w3.org/2000/svg" version="1.1" viewBox="0 0 512 512">
  <!-- Generator: Adobe Illustrator 30.2.1, SVG Export Plug-In . SVG Version: 2.1.1 Build 1)  -->
  <defs>
    <style>
      .st0 {
        fill: #fff;
      }
    </style>
  </defs>
  <path class="st0" d="M341.33,341.33c0,11.78-9.55,21.33-21.33,21.33h-42.67v42.67c0,11.78-9.55,21.33-21.33,21.33s-21.33-9.55-21.33-21.33v-42.67h-42.67c-11.78,0-21.33-9.55-21.33-21.33s9.55-21.33,21.33-21.33h42.67v-42.67c0-11.78,9.55-21.33,21.33-21.33s21.33,9.55,21.33,21.33v42.67h42.67c11.78,0,21.33,9.55,21.33,21.33ZM469.33,223.68v181.65c-.07,58.88-47.79,106.6-106.67,106.67h-213.33c-58.88-.07-106.6-47.79-106.67-106.67V106.67C42.74,47.79,90.45.07,149.33,0h96.32c39.63-.1,77.65,15.64,105.6,43.73l74.33,74.37c28.11,27.93,43.86,65.95,43.75,105.58ZM321.09,73.9c-6.71-6.5-14.25-12.1-22.42-16.64v92.07c0,11.78,9.55,21.33,21.33,21.33h92.07c-4.54-8.17-10.15-15.7-16.66-22.4l-74.33-74.37ZM426.67,223.68c0-3.52-.68-6.89-1-10.35h-105.66c-35.35,0-64-28.65-64-64V43.67c-3.46-.32-6.85-1-10.35-1h-96.32c-35.35,0-64,28.65-64,64v298.67c0,35.35,28.65,64,64,64h213.33c35.35,0,64-28.65,64-64v-181.65Z"/>
</svg>