<?xml version="1.0" encoding="UTF-8"?>
<svg id="Layer_1" xmlns="http://www.w3.org/2000/svg" version="1.1" viewBox="0 0 512 512">
  <!-- Generator: Adobe Illustrator 30.2.1, SVG Export Plug-In . SVG Version: 2.1.1 Build 1)  -->
  <defs>
    <style>
      .st0 {
        fill: #fff;
      }
    </style>
  </defs>
  <path class="st0" d="M501.18,235.03c-10.39-13.95-26.33-21.97-43.73-21.97h-9.45v-42.39c0-58.82-47.85-106.67-106.67-106.67h-107.86c-3.29,0-6.61-.79-9.54-2.24l-67.31-33.66c-8.83-4.42-18.73-6.74-28.63-6.74h-42.67C38.27,21.33,0,59.61,0,106.67v277.33c0,58.82,47.85,106.67,106.67,106.67h267.9c47.49,0,88.53-30.55,102.44-76.95l32.68-130.47c4.99-16.68,1.9-34.24-8.49-48.21h-.02ZM42.67,384V106.67c0-23.53,19.14-42.67,42.67-42.67h42.67c3.29,0,6.61.79,9.54,2.24l67.31,33.66c8.83,4.42,18.73,6.74,28.63,6.74h107.86c35.29,0,64,28.71,64,64v42.39h-221.55c-36.27,0-68.65,23.02-80.83,58.03l-46.72,152.28c-8.49-10.86-13.57-24.53-13.57-39.36v.02ZM468.57,271.94l-32.68,130.45c-8.19,27.29-32.83,45.61-61.31,45.61H106.67c-4.44,0-8.77-.45-12.95-1.32l49.79-162.33c5.95-17.13,22.17-28.63,40.3-28.63h273.66c5.16,0,8.17,2.99,9.49,4.78s3.33,5.53,1.6,11.43Z"/>
</svg>