<?xml version="1.0" encoding="UTF-8"?>
<svg id="Layer_1" xmlns="http://www.w3.org/2000/svg" version="1.1" viewBox="0 0 24 24">
  <!-- Generator: Adobe Illustrator 30.2.1, SVG Export Plug-In . SVG Version: 2.1.1 Build 1)  -->
  <defs>
    <style>
      .st0 {
        fill: #fff;
      }
    </style>
  </defs>
  <path class="st0" d="M24,12c0,.55-.45,1-1,1s-1-.45-1-1c0-5.51-4.49-10-10-10-3.15,0-6.11,1.51-7.99,4h2.99c.55,0,1,.45,1,1s-.45,1-1,1H3c-1.1,0-2-.9-2-2V2c0-.55.45-1,1-1s1,.45,1,1v2.1C5.26,1.54,8.52,0,12,0,18.62,0,24,5.38,24,12ZM21,16h-4c-.55,0-1,.45-1,1s.45,1,1,1h2.99c-1.88,2.49-4.84,4-7.99,4-5.51,0-10-4.49-10-10,0-.55-.45-1-1-1S0,11.45,0,12C0,18.62,5.38,24,12,24c3.48,0,6.74-1.54,9-4.1v2.1c0,.55.45,1,1,1s1-.45,1-1v-4c0-1.1-.9-2-2-2Z"/>
</svg>