<?xml version="1.0" encoding="UTF-8"?>
<svg id="Layer_1" xmlns="http://www.w3.org/2000/svg" version="1.1" viewBox="0 0 512 512">
  <!-- Generator: Adobe Illustrator 30.2.1, SVG Export Plug-In . SVG Version: 2.1.1 Build 1)  -->
  <defs>
    <style>
      .st0 {
        fill: #fff;
      }
    </style>
  </defs>
  <path class="st0" d="M106.67,85.33h3.84c8.75,24.75,32.21,42.67,60.16,42.67h42.67c27.73,0,51.2-17.92,60.16-42.67h3.84c29.23,0,54.61,19.63,62.08,48,2.99,11.52,14.51,18.35,26.03,15.36,11.31-2.99,18.35-14.51,15.36-26.03-12.16-47.15-54.61-80-103.25-80h-3.63C265.17,17.92,241.49,0,213.55,0h-42.67C143.15,0,119.25,17.92,110.51,42.67h-3.63C47.79,42.67,0,90.45,0,149.33v256c0,58.88,47.79,106.67,106.67,106.67h64c11.73,0,21.33-9.6,21.33-21.33s-9.6-21.33-21.33-21.33h-64c-35.2,0-64-28.8-64-64V149.33c0-35.2,28.8-64,64-64ZM170.67,42.67h42.67c11.73,0,21.33,9.6,21.33,21.33s-9.6,21.33-21.33,21.33h-42.67c-11.73,0-21.33-9.6-21.33-21.33s9.6-21.33,21.33-21.33ZM426.67,192h-106.67c-47.15,0-85.33,38.19-85.33,85.33v149.33c0,47.15,38.19,85.33,85.33,85.33h106.67c47.15,0,85.33-38.19,85.33-85.33v-149.33c0-47.15-38.19-85.33-85.33-85.33ZM469.33,426.67c0,23.47-19.2,42.67-42.67,42.67h-106.67c-23.47,0-42.67-19.2-42.67-42.67v-149.33c0-23.47,19.2-42.67,42.67-42.67h106.67c23.47,0,42.67,19.2,42.67,42.67v149.33ZM426.67,298.67c0,11.73-9.6,21.33-21.33,21.33h-64c-11.73,0-21.33-9.6-21.33-21.33s9.6-21.33,21.33-21.33h64c11.73,0,21.33,9.6,21.33,21.33ZM426.67,384c0,11.73-9.6,21.33-21.33,21.33h-64c-11.73,0-21.33-9.6-21.33-21.33s9.6-21.33,21.33-21.33h64c11.73,0,21.33,9.6,21.33,21.33Z"/>
</svg>