<?xml version="1.0" encoding="UTF-8"?>
<svg id="Layer_1" xmlns="http://www.w3.org/2000/svg" version="1.1" viewBox="0 0 512 512">
  <!-- Generator: Adobe Illustrator 30.2.1, SVG Export Plug-In . SVG Version: 2.1.1 Build 1)  -->
  <defs>
    <style>
      .st0 {
        fill: #fff;
      }
    </style>
  </defs>
  <path class="st0" d="M347.73,320.15c12.5,12.49,32.75,12.49,45.25,0l100.82-100.8c24.38-24.43,24.38-63.99,0-88.43l-100.93-100.8c-11.85-13.11-32.09-14.13-45.2-2.28-13.11,11.85-14.13,32.09-2.28,45.2.74.82,1.52,1.59,2.33,2.33l68.95,67.56H113.47C50.84,143.02.08,193.77,0,256.41v142.53c.07,62.63,50.82,113.38,113.45,113.45h285.1c17.67,0,32-14.33,32-32s-14.33-32-32-32H113.45c-27.3-.04-49.42-22.15-49.45-49.45v-142.53c.02-27.31,22.16-49.45,49.47-49.47h302.06l-67.8,67.97c-12.49,12.5-12.49,32.75,0,45.25Z"/>
</svg>