<?xml version="1.0" encoding="UTF-8"?>
<svg id="Layer_1" xmlns="http://www.w3.org/2000/svg" version="1.1" viewBox="0 0 512 512">
  <!-- Generator: Adobe Illustrator 30.2.1, SVG Export Plug-In . SVG Version: 2.1.1 Build 1)  -->
  <defs>
    <style>
      .st0 {
        fill: #fff;
      }
    </style>
  </defs>
  <g id="_01_align_center">
    <path class="st0" d="M405.33,0H64C28.65,0,0,28.65,0,64v448h512V106.67L405.33,0ZM149.33,42.67h213.33v85.33h-213.33V42.67ZM469.33,469.33H42.67V64c0-11.78,9.55-21.33,21.33-21.33h42.67v128h298.67V60.33l64,64v345Z"/>
    <path class="st0" d="M256,213.33c-47.13,0-85.33,38.21-85.33,85.33s38.21,85.33,85.33,85.33,85.33-38.21,85.33-85.33-38.21-85.33-85.33-85.33ZM256,341.33c-23.56,0-42.67-19.1-42.67-42.67s19.1-42.67,42.67-42.67,42.67,19.1,42.67,42.67-19.1,42.67-42.67,42.67Z"/>
  </g>
</svg>