<?xml version="1.0" encoding="UTF-8"?>
<svg id="Layer_1" xmlns="http://www.w3.org/2000/svg" version="1.1" viewBox="0 0 512 512">
  <!-- Generator: Adobe Illustrator 30.2.1, SVG Export Plug-In . SVG Version: 2.1.1 Build 1)  -->
  <defs>
    <style>
      .st0 {
        fill: #fff;
      }
    </style>
  </defs>
  <path class="st0" d="M405.33,0H106.67C47.79.07.07,47.79,0,106.67v106.67c.11,82.43,66.9,149.23,149.33,149.33h42.67v85.33c0,35.35,28.65,64,64,64s64-28.65,64-64v-85.33h42.67c82.43-.11,149.23-66.9,149.33-149.33v-106.67C511.93,47.79,464.21.07,405.33,0ZM42.67,106.67c0-35.35,28.65-64,64-64h106.67v21.33c0,11.78,9.55,21.33,21.33,21.33s21.33-9.55,21.33-21.33v-21.33h42.67v64c0,11.78,9.55,21.33,21.33,21.33s21.33-9.55,21.33-21.33V42.67h42.67v106.67c0,11.78,9.55,21.33,21.33,21.33s21.33-9.55,21.33-21.33V46.59c25.48,9.01,42.55,33.05,42.67,60.07v106.67H42.67v-106.67ZM362.67,320h-64c-11.78,0-21.33,9.55-21.33,21.33v106.67c0,11.78-9.55,21.33-21.33,21.33s-21.33-9.55-21.33-21.33v-106.67c0-11.78-9.55-21.33-21.33-21.33h-64c-42.36-.06-80.68-25.17-97.62-64h408.58c-16.94,38.83-55.26,63.94-97.62,64Z"/>
</svg>