<?xml version="1.0" encoding="UTF-8"?>
<svg id="Layer_1" xmlns="http://www.w3.org/2000/svg" version="1.1" viewBox="0 0 512 512">
  <!-- Generator: Adobe Illustrator 30.2.1, SVG Export Plug-In . SVG Version: 2.1.1 Build 1)  -->
  <defs>
    <style>
      .st0 {
        fill: #fff;
      }
    </style>
  </defs>
  <path class="st0" d="M164.27,320.15c-12.5,12.49-32.75,12.49-45.25,0L18.3,219.35c-24.41-24.42-24.41-64,0-88.43L119.1,30.12c13.08-11.89,33.32-10.92,45.2,2.16,11.11,12.22,11.09,30.89-.04,43.09l-68.97,67.56h303.21c62.65.06,113.42,50.82,113.49,113.47v142.53c-.06,62.63-50.82,113.39-113.45,113.45H113.45c-17.67,0-32-14.33-32-32s14.33-32,32-32h285.08c27.3-.02,49.44-22.15,49.47-49.45v-142.53c-.02-27.32-22.17-49.46-49.49-49.47H96.47l67.8,67.97c12.49,12.5,12.49,32.75,0,45.25Z"/>
</svg>